<svg xmlns="http://www.w3.org/2000/svg"
   xmlns:xlink="http://www.w3.org/1999/xlink" width="20px" height="19px" viewBox="0 0 20 19">
   <path fill-rule="evenodd" fill="#727272" d="M9.998901,1.999939 C9.998901,1.999939 2.2284546,8.858063 2.2284546,8.858063 C1.9596558,9.0954895 1.9309082,9.509125 2.1643677,9.782318 C2.1643677,9.782318 2.1643677,9.782318 2.1643677,9.782318 C2.3978271,10.055511 2.8049316,10.084503 3.0736084,9.847351 C3.0736084,9.847351 3.3600464,9.594696 3.3600464,9.594696 C3.3600464,9.594696 3.3600464,16.034607 3.3600464,16.034607 C3.3600464,17.120117 4.22583,17.999847 5.29364,17.999847 C5.29364,17.999847 8.903259,17.999847 8.903259,17.999847 C8.903259,17.999847 8.903259,12.72641 8.903259,12.72641 C8.903259,12.093262 9.408264,11.580017 10.031189,11.580017 C10.031189,11.580017 10.031189,11.580017 10.031189,11.580017 C10.654175,11.580017 11.159119,12.093262 11.159119,12.72641 C11.159119,12.72641 11.159119,17.999847 11.159119,17.999847 C11.159119,17.999847 14.704102,17.999847 14.704102,17.999847 C15.772095,17.999847 16.637817,17.120117 16.637817,16.034607 C16.637817,16.034607 16.637817,9.594696 16.637817,9.594696 C16.637817,9.594696 16.924194,9.847351 16.924194,9.847351 C17.192993,10.084747 17.600037,10.055511 17.833496,9.782318 C17.833496,9.782318 17.833496,9.782318 17.833496,9.782318 C18.066895,9.509125 18.038269,9.0954895 17.76941,8.858307 C17.76941,8.858307 9.998901,1.999939 9.998901,1.999939 ZM15.348633,16.034607 C15.348633,16.39627 15.060181,16.689789 14.704102,16.689789 C14.704102,16.689789 12.448242,16.689789 12.448242,16.689789 C12.448242,16.689789 12.448242,12.72641 12.448242,12.72641 C12.448242,11.36969 11.366089,10.269928 10.031189,10.269928 C10.031189,10.269928 10.031189,10.269928 10.031189,10.269928 C8.696228,10.269928 7.6140747,11.36969 7.6140747,12.72641 C7.6140747,12.72641 7.6140747,16.689789 7.6140747,16.689789 C7.6140747,16.689789 5.29364,16.689789 5.29364,16.689789 C4.937744,16.689789 4.649109,16.39627 4.649109,16.034607 C4.649109,16.034607 4.649109,8.456757 4.649109,8.456757 C4.649109,8.456757 9.998901,3.7350159 9.998901,3.7350159 C9.998901,3.7350159 15.348633,8.456757 15.348633,8.456757 C15.348633,8.456757 15.348633,16.034607 15.348633,16.034607 Z"/>
</svg>